<svg width="175" height="44" viewBox="0 0 175 44" fill="none" xmlns="http://www.w3.org/2000/svg">
<path d="M169.134 17.0977C170.256 17.0977 171.256 17.3169 172.133 17.7553C173.027 18.1937 173.729 18.8688 174.237 19.7807C174.746 20.6751 175 21.8325 175 23.2529V31.302H171.712V23.6738C171.712 22.4287 171.414 21.4993 170.818 20.8855C170.239 20.2717 169.423 19.9648 168.371 19.9648C167.6 19.9648 166.916 20.1227 166.32 20.4383C165.723 20.754 165.259 21.2275 164.925 21.8588C164.61 22.4725 164.452 23.2529 164.452 24.1999V31.302H161.164V11.7842H164.452V21.0433L163.742 19.8859C164.233 18.9916 164.943 18.3077 165.872 17.8342C166.819 17.3432 167.907 17.0977 169.134 17.0977Z" fill="black"/>
<path d="M152.453 31.4862C150.98 31.4862 149.664 31.1793 148.507 30.5655C147.367 29.9342 146.473 29.0749 145.824 27.9877C145.175 26.9004 144.851 25.6641 144.851 24.2788C144.851 22.8759 145.175 21.6395 145.824 20.5698C146.473 19.4826 147.367 18.6321 148.507 18.0183C149.664 17.4045 150.98 17.0977 152.453 17.0977C153.82 17.0977 155.022 17.3782 156.056 17.9394C157.108 18.483 157.906 19.2897 158.45 20.3594L155.925 21.8324C155.504 21.1661 154.987 20.6751 154.373 20.3594C153.777 20.0437 153.128 19.8859 152.426 19.8859C151.62 19.8859 150.892 20.0613 150.243 20.412C149.594 20.7627 149.086 21.2713 148.717 21.9377C148.349 22.5865 148.165 23.3669 148.165 24.2788C148.165 25.1906 148.349 25.9798 148.717 26.6462C149.086 27.295 149.594 27.7948 150.243 28.1455C150.892 28.4962 151.62 28.6716 152.426 28.6716C153.128 28.6716 153.777 28.5138 154.373 28.1981C154.987 27.8825 155.504 27.3914 155.925 26.7251L158.45 28.1981C157.906 29.2503 157.108 30.0657 156.056 30.6444C155.022 31.2056 153.82 31.4862 152.453 31.4862Z" fill="black"/>
<path d="M138.404 31.3021V17.2556H141.693V31.3021H138.404ZM140.062 14.9408C139.448 14.9408 138.939 14.7479 138.536 14.3621C138.15 13.9763 137.957 13.5116 137.957 12.9679C137.957 12.4068 138.15 11.9421 138.536 11.5738C138.939 11.188 139.448 10.9951 140.062 10.9951C140.675 10.9951 141.175 11.1792 141.561 11.5475C141.964 11.8982 142.166 12.3454 142.166 12.889C142.166 13.4677 141.973 13.9587 141.587 14.3621C141.201 14.7479 140.693 14.9408 140.062 14.9408Z" fill="black"/>
<path d="M126.932 31.3024L120.909 17.2559H124.328L129.51 29.6452H127.827L133.193 17.2559H136.349L130.326 31.3024H126.932Z" fill="black"/>
<path d="M113.693 31.4862C112.133 31.4862 110.765 31.1793 109.59 30.5655C108.433 29.9342 107.529 29.0749 106.881 27.9877C106.249 26.9004 105.934 25.6641 105.934 24.2788C105.934 22.8759 106.24 21.6395 106.854 20.5698C107.486 19.4826 108.345 18.6321 109.432 18.0183C110.537 17.4045 111.791 17.0977 113.194 17.0977C114.561 17.0977 115.78 17.3958 116.85 17.992C117.92 18.5882 118.761 19.43 119.375 20.5172C119.989 21.6045 120.296 22.8846 120.296 24.3577C120.296 24.498 120.287 24.6558 120.269 24.8311C120.269 25.0065 120.261 25.1731 120.243 25.3309H108.538V23.1477H118.507L117.218 23.8316C117.236 23.0249 117.069 22.3147 116.718 21.7009C116.368 21.0872 115.885 20.6049 115.272 20.2542C114.675 19.9035 113.983 19.7281 113.194 19.7281C112.387 19.7281 111.677 19.9035 111.063 20.2542C110.467 20.6049 109.993 21.0959 109.643 21.7272C109.309 22.341 109.143 23.0688 109.143 23.9105V24.4366C109.143 25.2783 109.336 26.0236 109.721 26.6725C110.107 27.3213 110.651 27.8211 111.352 28.1718C112.054 28.5225 112.86 28.6979 113.772 28.6979C114.561 28.6979 115.272 28.5751 115.903 28.3296C116.534 28.0841 117.095 27.6983 117.586 27.1722L119.349 29.1977C118.718 29.9342 117.92 30.5041 116.955 30.9075C116.008 31.2933 114.921 31.4862 113.693 31.4862Z" fill="black"/>
<path d="M99.4873 31.302V11.7842H102.775V31.302H99.4873Z" fill="black"/>
<path d="M92.1636 31.302V28.4612L91.9795 27.8562V22.8846C91.9795 21.9201 91.6901 21.1748 91.1114 20.6487C90.5327 20.1051 89.6559 19.8333 88.481 19.8333C87.6919 19.8333 86.9115 19.9561 86.1399 20.2016C85.3858 20.4471 84.7458 20.789 84.2197 21.2274L82.9308 18.8337C83.6848 18.255 84.5792 17.8254 85.6138 17.5448C86.666 17.2467 87.7532 17.0977 88.8756 17.0977C90.9098 17.0977 92.4792 17.5887 93.584 18.5707C94.7064 19.5352 95.2675 21.0345 95.2675 23.0688V31.302H92.1636ZM87.7445 31.4862C86.6923 31.4862 85.7716 31.3108 84.9825 30.9601C84.1934 30.5918 83.5796 30.092 83.1412 29.4607C82.7203 28.8119 82.5099 28.0841 82.5099 27.2775C82.5099 26.4883 82.694 25.7781 83.0623 25.1468C83.4481 24.5155 84.0706 24.0157 84.9299 23.6475C85.7892 23.2792 86.929 23.0951 88.3495 23.0951H92.4266V25.2783H88.5862C87.4639 25.2783 86.7098 25.4625 86.324 25.8307C85.9382 26.1814 85.7453 26.6198 85.7453 27.1459C85.7453 27.7422 85.9821 28.2156 86.4555 28.5664C86.929 28.9171 87.5866 29.0925 88.4284 29.0925C89.235 29.0925 89.954 28.9083 90.5853 28.5401C91.2342 28.1718 91.6989 27.6282 91.9795 26.9092L92.5319 28.882C92.2162 29.7062 91.6463 30.3463 90.8221 30.8022C90.0154 31.2582 88.9895 31.4862 87.7445 31.4862Z" fill="black"/>
<path d="M73.5471 17.0977C74.6694 17.0977 75.6602 17.3169 76.5195 17.7553C77.3963 18.1937 78.0802 18.8688 78.5712 19.7807C79.0622 20.6751 79.3078 21.8324 79.3078 23.2529V31.302H76.0197V23.6738C76.0197 22.4287 75.7479 21.4993 75.2043 20.8855C74.6606 20.2717 73.8803 19.9648 72.8632 19.9648C72.1442 19.9648 71.5041 20.1227 70.943 20.4383C70.3993 20.754 69.9697 21.2187 69.654 21.8324C69.3559 22.4462 69.2069 23.2266 69.2069 24.1735V31.302H65.9188V23.6738C65.9188 22.4287 65.647 21.4993 65.1034 20.8855C64.5598 20.2717 63.7794 19.9648 62.7623 19.9648C62.0433 19.9648 61.4032 20.1227 60.8421 20.4383C60.2984 20.754 59.8688 21.2187 59.5532 21.8324C59.255 22.4462 59.106 23.2266 59.106 24.1735V31.302H55.8179V17.2555H58.9482V20.9907L58.3958 19.8859C58.8692 18.974 59.5532 18.2814 60.4475 17.8079C61.3594 17.3344 62.394 17.0977 63.5514 17.0977C64.8666 17.0977 66.0065 17.4221 66.971 18.0709C67.953 18.7198 68.6019 19.7018 68.9175 21.017L67.6286 20.5698C68.0845 19.5177 68.8386 18.6759 69.8908 18.0446C70.943 17.4133 72.1617 17.0977 73.5471 17.0977Z" fill="black"/>
<path d="M2.90117 34.7394L16.984 42.5618C19.3613 43.8722 21.7319 43.8722 24.0959 42.5618L38.1786 34.7394C39.1457 34.1912 39.871 33.5694 40.3545 32.8741C40.8381 32.1654 41.0798 31.109 41.0798 29.705V13.6791C41.0798 12.3286 40.8381 11.3124 40.3545 10.6304C39.8844 9.94847 39.1994 9.35343 38.2995 8.84531L24.2973 1.04298C23.0616 0.347662 21.8058 0 20.5298 0C19.2673 0 18.0115 0.347662 16.7623 1.04298L2.80044 8.84531C1.88711 9.35343 1.18868 9.94847 0.705146 10.6304C0.235049 11.3124 0 12.3286 0 13.6791V29.705C0 31.109 0.241765 32.1654 0.725294 32.8741C1.20882 33.5694 1.93412 34.1912 2.90117 34.7394Z" fill="url(#paint0_linear_10270_27924)"/>
<defs>
<linearGradient id="paint0_linear_10270_27924" x1="1.05837e-06" y1="31.5698" x2="42.0069" y2="11.5561" gradientUnits="userSpaceOnUse">
<stop stop-color="#87439D"/>
<stop offset="1" stop-color="#D84674"/>
</linearGradient>
</defs>
</svg>
